<?xml version="1.0" encoding="UTF-8" standalone="no"?>
<svg xmlns="http://www.w3.org/2000/svg" xml:space="preserve" width="248.571" height="248.571">
  <path fill="#333" d="M87.423 88.968c.562 3.126-1.517 6.115-4.642 6.676l-33.956 6.102c-3.126.562-6.115-1.517-6.676-4.642-.562-3.126 1.517-6.115 4.642-6.676l33.956-6.102c3.126-.562 6.114 1.516 6.676 4.642z"/>
  <path fill="#76c2af" d="M248.57071 124.28568c.024 68.641-55.601 124.305-124.242 124.329s-124.305-55.602-124.329-124.243v-.086c-.024-68.641 55.602-124.305 124.243-124.329 68.641-.023 124.305 55.602 124.328 124.243v.086z"/>
  <path fill="#231F20" stroke="#231F20" stroke-width="6" d="M125.23671 1.50668c-2.583 27.364-8.65 40.051-11.059 50.922-1.204 5.436-1.468 10.432.094 16.466s4.943 13.107 11.027 22.808l.846-.518c-6.057-9.659-9.378-16.649-10.901-22.534-1.523-5.885-1.247-10.662-.063-16.008 2.369-10.694 8.465-23.569 11.058-51.044l-1.002-.092z"/>
  <path fill="#C1BC9D" d="M113.55071 139.72068c0 22.092-17.909 40-40 40-22.092 0-40-17.908-40-40 0-22.091 17.908-40 40-40 22.091 0 40 17.909 40 40zm101.999 0c0 22.092-17.908 40-40 40s-40-17.908-40-40c0-22.091 17.908-40 40-40s40 17.909 40 40z"/>
  <path fill="#C1BC9D" d="M70.33571 99.72068h105.713v60h-105.713z"/>
  <path fill="#F2F2F2" d="M113.88371 131.05368c0 22.092-17.909 40-40 40-22.092 0-40-17.908-40-40 0-22.091 17.908-40 40-40 22.091 0 40 17.909 40 40zm102 0c0 22.092-17.908 40-40 40s-40-17.908-40-40c0-22.091 17.908-40 40-40s40 17.909 40 40z"/>
  <path fill="#F2F2F2" d="M70.66971 91.05368h105.714v60h-105.714z"/>
  <path fill="#C1BC9D" d="M186.67271 113.25168c0 5.061-4.104 9.163-9.164 9.163s-9.163-4.102-9.163-9.163 4.103-9.163 9.163-9.163 9.164 4.102 9.164 9.163zm.144 37.534c0 5.061-4.103 9.163-9.162 9.163-5.062 0-9.164-4.103-9.164-9.163 0-5.062 4.103-9.164 9.164-9.164 5.06 0 9.162 4.102 9.162 9.164zm18.594-18.629c0 5.06-4.104 9.163-9.162 9.163-5.063 0-9.164-4.104-9.164-9.163 0-5.062 4.102-9.164 9.164-9.164 5.058 0 9.162 4.103 9.162 9.164zm-37.401-.02c0 5.063-4.103 9.164-9.163 9.164-5.062 0-9.163-4.102-9.163-9.164 0-5.06 4.102-9.163 9.163-9.163 5.06 0 9.163 4.103 9.163 9.163z"/>
  <path fill="#141212" d="M186.67271 112.00168c0 5.061-4.104 9.163-9.164 9.163s-9.163-4.102-9.163-9.163 4.103-9.163 9.163-9.163 9.164 4.102 9.164 9.163zm.144 37.534c0 5.061-4.103 9.163-9.162 9.163-5.062 0-9.164-4.103-9.164-9.163 0-5.062 4.103-9.164 9.164-9.164 5.06 0 9.162 4.102 9.162 9.164zm18.594-18.629c0 5.06-4.104 9.163-9.162 9.163-5.063 0-9.164-4.104-9.164-9.163 0-5.062 4.102-9.164 9.164-9.164 5.058 0 9.162 4.103 9.162 9.164zm-37.401-.02c0 5.063-4.103 9.164-9.163 9.164-5.062 0-9.163-4.102-9.163-9.164 0-5.06 4.102-9.163 9.163-9.163 5.06 0 9.163 4.103 9.163 9.163z"/>
  <path fill="#333" d="M186.67271 109.62668c0 5.061-4.104 9.163-9.164 9.163s-9.163-4.103-9.163-9.163c0-5.061 4.103-9.163 9.163-9.163s9.164 4.102 9.164 9.163zm.144 37.534c0 5.061-4.103 9.163-9.162 9.163-5.062 0-9.164-4.103-9.164-9.163 0-5.062 4.103-9.164 9.164-9.164 5.06 0 9.162 4.102 9.162 9.164zm18.594-18.629c0 5.06-4.104 9.163-9.162 9.163-5.063 0-9.164-4.104-9.164-9.163 0-5.062 4.102-9.164 9.164-9.164 5.058.001 9.162 4.103 9.162 9.164zm-37.401-.02c0 5.063-4.103 9.164-9.163 9.164-5.062 0-9.163-4.102-9.163-9.164 0-5.06 4.102-9.163 9.163-9.163 5.06 0 9.163 4.103 9.163 9.163z"/>
  <path fill="#C1BC9D" d="M98.03571 136.91068c0 3.797-3.078 6.875-6.875 6.875h-36.25c-3.797 0-6.875-3.078-6.875-6.875s3.078-6.875 6.875-6.875h36.25c3.797 0 6.875 3.078 6.875 6.875z"/>
  <path fill="#C1BC9D" d="M72.91071 111.91068c3.797 0 6.875 3.078 6.875 6.875v36.25c0 3.797-3.078 6.875-6.875 6.875s-6.875-3.078-6.875-6.875v-36.25c0-3.797 3.078-6.875 6.875-6.875z"/>
  <path fill="#141212" d="M98.03571 134.03568c0 3.797-3.078 6.875-6.875 6.875h-36.25c-3.797 0-6.875-3.078-6.875-6.875s3.078-6.875 6.875-6.875h36.25c3.797 0 6.875 3.078 6.875 6.875z"/>
  <path fill="#141212" d="M72.91071 109.03568c3.797 0 6.875 3.078 6.875 6.875v36.25c0 3.797-3.078 6.875-6.875 6.875s-6.875-3.078-6.875-6.875v-36.25c0-3.797 3.078-6.875 6.875-6.875z"/>
  <path fill="#333" d="M98.03571 130.53568c0 3.797-3.078 6.875-6.875 6.875h-36.25c-3.797 0-6.875-3.078-6.875-6.875s3.078-6.875 6.875-6.875h36.25c3.797 0 6.875 3.078 6.875 6.875z"/>
  <path fill="#333" d="M72.91071 105.53568c3.797 0 6.875 3.078 6.875 6.875v36.25c0 3.797-3.078 6.875-6.875 6.875s-6.875-3.078-6.875-6.875v-36.25c0-3.797 3.078-6.875 6.875-6.875z"/>
</svg>